<?xml version="1.0" ?>
<!DOCTYPE svg  PUBLIC '-//W3C//DTD SVG 1.1//EN'  'http://www.w3.org/Graphics/SVG/1.1/DTD/svg11.dtd'>
<!-- Uploaded to: SVG Repo, www.svgrepo.com, Generator: SVG Repo Mixer Tools -->
<svg width="800px" height="800px" viewBox="0 0 6.82666 6.82666" style="shape-rendering:geometricPrecision; text-rendering:geometricPrecision; image-rendering:optimizeQuality; fill-rule:evenodd; clip-rule:evenodd" xml:space="preserve" xmlns="http://www.w3.org/2000/svg" xmlns:xlink="http://www.w3.org/1999/xlink">
<defs>
<style type="text/css">
   <![CDATA[
    .str0 {stroke:#373435;stroke-width:0.00694488;stroke-linecap:round;stroke-linejoin:round}
    .fil4 {fill:none}
    .fil3 {fill:#EDEAE3}
    .fil1 {fill:#EEBC99}
    .fil2 {fill:#FF3D00}
    .fil0 {fill:black;fill-rule:nonzero}
   ]]>
  </style>
</defs>
<g id="Layer_x0020_1">
<g id="_171900416">
<path class="fil0" d="M4.33318 3.42234c-0.0294528,0 -0.0533346,0.0238819 -0.0533346,0.0533346 0,0.0294528 0.0238819,0.0533346 0.0533346,0.0533346l1.53349 0 0 2.22457 -4.90667 0 0 -2.22457 1.53151 0c0.0294528,0 0.0533346,-0.0238819 0.0533346,-0.0533346 0,-0.0294528 -0.0238819,-0.0533346 -0.0533346,-0.0533346l-1.58484 0c-0.0294528,0 -0.0533346,0.0238819 -0.0533346,0.0533346l0 2.33124c0,0.0294528 0.0238819,0.0533346 0.0533346,0.0533346l5.01334 0c0.0294528,0 0.0533346,-0.0238819 0.0533346,-0.0533346l0 -2.33124c0,-0.0294528 -0.0238819,-0.0533346 -0.0533346,-0.0533346l-1.58682 0z" id="_171901328"/>
<path class="fil0" d="M2.44299 5.80692c0,0.0294528 0.0238819,0.0533346 0.0533346,0.0533346 0.0294528,0 0.0533346,-0.0238819 0.0533346,-0.0533346l0 -2.73045c0,-0.0294528 -0.0238819,-0.0533346 -0.0533346,-0.0533346 -0.00160236,0 -0.0031811,7.48031e-005 -0.00474803,0.000212598l-0.231776 0.00026378 1.15353 -1.15353 1.15353 1.15353 -0.236469 -0.00026378 0 -0.000204724c-0.0294528,-3.14961e-005 -0.0533583,0.0238189 -0.0533898,0.0532717l0 5.90551e-005 -3.93701e-006 0 0 2.73044c0,0.0294528 0.0238819,0.0533346 0.0533346,0.0533346 0.0294528,0 0.0533346,-0.0238819 0.0533346,-0.0533346l0 -2.67726 0.30713 0.000346457c0.015189,0.00135039 0.0308425,-0.0037874 0.0424646,-0.0154094 0.0208268,-0.0208268 0.0208268,-0.0545984 0,-0.0754252l-3.93701e-006 3.93701e-006 -1.2819 -1.2819 -0.000318898 -0.000326772c-0.0208268,-0.0208268 -0.0545984,-0.0208268 -0.0754252,0l3.93701e-006 3.93701e-006 -1.28208 1.28208c-0.00974803,0.00967717 -0.0157756,0.0230866 -0.0157598,0.0379055 3.14961e-005,0.0294528 0.023937,0.0533031 0.0533898,0.0532717l0 -0.000204724 0.311819 -0.000354331 0 2.67726z" id="_171901256"/>
<g>
<path class="fil0" d="M1.43483 3.8413l0.533331 0c0.0294528,0 0.0533346,0.0238819 0.0533346,0.0533346l0 0.533331c0,0.0294528 -0.0238819,0.0533346 -0.0533346,0.0533346l-0.533331 0c-0.0294528,0 -0.0533346,-0.0238819 -0.0533346,-0.0533346l0 -0.533331c0,-0.0294528 0.0238819,-0.0533346 0.0533346,-0.0533346zm0.479996 0.106669l-0.426661 0 0 0.426661 0.426661 0 0 -0.426661z" id="_171901160"/>
<path class="fil0" d="M1.43483 4.8013l0.533331 0c0.0294528,0 0.0533346,0.0238819 0.0533346,0.0533346l0 0.533331c0,0.0294528 -0.0238819,0.0533346 -0.0533346,0.0533346l-0.533331 0c-0.0294528,0 -0.0533346,-0.0238819 -0.0533346,-0.0533346l0 -0.533331c0,-0.0294528 0.0238819,-0.0533346 0.0533346,-0.0533346zm0.479996 0.106669l-0.426661 0 0 0.426661 0.426661 0 0 -0.426661z" id="_171901112"/>
</g>
<g>
<path class="fil0" d="M4.8585 3.8413l0.533331 0c0.0294528,0 0.0533346,0.0238819 0.0533346,0.0533346l0 0.533331c0,0.0294528 -0.0238819,0.0533346 -0.0533346,0.0533346l-0.533331 0c-0.0294528,0 -0.0533346,-0.0238819 -0.0533346,-0.0533346l0 -0.533331c0,-0.0294528 0.0238819,-0.0533346 0.0533346,-0.0533346zm0.479996 0.106669l-0.426661 0 0 0.426661 0.426661 0 0 -0.426661z" id="_171900968"/>
<path class="fil0" d="M4.8585 4.8013l0.533331 0c0.0294528,0 0.0533346,0.0238819 0.0533346,0.0533346l0 0.533331c0,0.0294528 -0.0238819,0.0533346 -0.0533346,0.0533346l-0.533331 0c-0.0294528,0 -0.0533346,-0.0238819 -0.0533346,-0.0533346l0 -0.533331c0,-0.0294528 0.0238819,-0.0533346 0.0533346,-0.0533346zm0.479996 0.106669l-0.426661 0 0 0.426661 0.426661 0 0 -0.426661z" id="_171900920"/>
</g>
<path class="fil0" d="M3.41333 2.51567c0.112272,0 0.213921,0.0455118 0.287504,0.119094 0.0735827,0.0735827 0.119094,0.175232 0.119094,0.287504 0,0.112272 -0.0455118,0.213921 -0.119094,0.287504 -0.0735827,0.0735827 -0.175232,0.119094 -0.287504,0.119094 -0.112272,0 -0.213921,-0.0455118 -0.287504,-0.119094 -0.0735827,-0.0735827 -0.119094,-0.175232 -0.119094,-0.287504 0,-0.112272 0.0455118,-0.213921 0.119094,-0.287504 0.0735827,-0.0735827 0.175232,-0.119094 0.287504,-0.119094zm0.212087 0.194512c-0.0542717,-0.0542717 -0.12926,-0.0878425 -0.212087,-0.0878425 -0.0828268,0 -0.157815,0.0335709 -0.212087,0.0878425 -0.0542717,0.0542717 -0.0878425,0.12926 -0.0878425,0.212087 0,0.0828268 0.0335709,0.157815 0.0878425,0.212087 0.0542717,0.0542717 0.12926,0.0878425 0.212087,0.0878425 0.0828268,0 0.157815,-0.0335709 0.212087,-0.0878425 0.0542717,-0.0542717 0.0878425,-0.12926 0.0878425,-0.212087 0,-0.0828268 -0.0335709,-0.157815 -0.0878425,-0.212087z" id="_171900800"/>
<path class="fil0" d="M2.88 3.68901l1.06667 0c0.0294528,0 0.0533346,0.0238819 0.0533346,0.0533346l0 0.319996c0,0.0294528 -0.0238819,0.0533346 -0.0533346,0.0533346l-1.06667 0c-0.0294528,0 -0.0533346,-0.0238819 -0.0533346,-0.0533346l0 -0.319996c0,-0.0294528 0.0238819,-0.0533346 0.0533346,-0.0533346zm1.01333 0.106669l-0.959996 0 0 0.213327 0.959996 0 0 -0.213327z" id="_171900728"/>
<path class="fil0" d="M2.82667 5.80692c0,0.0294528 0.0238819,0.0533346 0.0533346,0.0533346 0.0294528,0 0.0533346,-0.0238819 0.0533346,-0.0533346l0 -1.37124 0.959996 0 0 1.37124c0,0.0294528 0.0238819,0.0533346 0.0533346,0.0533346 0.0294528,0 0.0533346,-0.0238819 0.0533346,-0.0533346l0 -1.42457c0,-0.0294528 -0.0238819,-0.0533346 -0.0533346,-0.0533346l-1.06667 0c-0.0294528,0 -0.0533346,0.0238819 -0.0533346,0.0533346l0 1.42457z" id="_171900656"/>
<g>
<path class="fil0" d="M3.46667 1.01974c0,-0.0294528 -0.0238819,-0.0533346 -0.0533346,-0.0533346 -0.0294528,0 -0.0533346,0.0238819 -0.0533346,0.0533346l0 0.773886c0,0.0294528 0.0238819,0.0533346 0.0533346,0.0533346 0.0294528,0 0.0533346,-0.0238819 0.0533346,-0.0533346l0 -0.773886z" id="_171900536"/>
<path class="fil0" d="M3.4331 0.970366c-0.0272677,-0.0109291 -0.0582362,0.00231496 -0.0691654,0.0295827 -0.0109291,0.0272677 0.00231496,0.0582362 0.0295827,0.0691654l0.409902 0.163961 -0.409902 0.163961c-0.0272677,0.0109291 -0.0405118,0.0418976 -0.0295827,0.0691654 0.0109291,0.0272677 0.0418976,0.0405118 0.0691654,0.0295827l0.529685 -0.211874c0.0146693,-0.00466929 0.0272165,-0.0156181 0.033378,-0.0310276 0.010937,-0.0273465 -0.00236614,-0.0583898 -0.0297126,-0.0693268l-5.11811e-005 0.000129921 -0.533299 -0.213319z" id="_171900560"/>
</g>
</g>
<path class="fil1 str0" d="M4.56686 3.02361l-1.15353 -1.15353 -1.15353 1.15353 0.231776 -0.00026378c0.00156693,-0.000137795 0.00314567,-0.000212598 0.00474803,-0.000212598 0.0294528,0 0.0533346,0.0238819 0.0533346,0.0533346l0 2.67711 0.277008 0 0 -1.37124c0,-0.0294528 0.0238819,-0.0533346 0.0533346,-0.0533346l1.06667 0c0.0294528,0 0.0533346,0.0238819 0.0533346,0.0533346l0 1.37124 0.277 0 3.93701e-006 -2.67711 0 -5.90551e-005c3.14961e-005,-0.0294528 0.023937,-0.0533031 0.0533898,-0.0532717l0 0.000204724 0.236469 0.00026378zm-0.746933 -0.101339c0,0.112272 -0.0455118,0.213921 -0.119094,0.287504 -0.0735827,0.0735827 -0.175232,0.119094 -0.287504,0.119094 -0.112272,0 -0.213921,-0.0455118 -0.287504,-0.119094 -0.0735827,-0.0735827 -0.119094,-0.175232 -0.119094,-0.287504 0,-0.112272 0.0455118,-0.213921 0.119094,-0.287504 0.0735827,-0.0735827 0.175232,-0.119094 0.287504,-0.119094 0.112272,0 0.213921,0.0455118 0.287504,0.119094 0.0735827,0.0735827 0.119094,0.175232 0.119094,0.287504zm-0.939929 0.76674l1.06667 0c0.0294528,0 0.0533346,0.0238819 0.0533346,0.0533346l0 0.319996c0,0.0294528 -0.0238819,0.0533346 -0.0533346,0.0533346l-1.06667 0c-0.0294528,0 -0.0533346,-0.0238819 -0.0533346,-0.0533346l0 -0.319996c0,-0.0294528 0.0238819,-0.0533346 0.0533346,-0.0533346z"/>
<path class="fil1 str0" d="M5.86667 3.52901l-1.483 0 0 2.22457 1.483 0 0 -2.22457zm-0.474831 0.312283c0.0294528,0 0.0533346,0.0238819 0.0533346,0.0533346l0 0.533331c0,0.0294528 -0.0238819,0.0533346 -0.0533346,0.0533346l-0.533331 0c-0.0294528,0 -0.0533346,-0.0238819 -0.0533346,-0.0533346l0 -0.533331c0,-0.0294528 0.0238819,-0.0533346 0.0533346,-0.0533346l0.533331 0zm-0.533331 0.96l0.533331 0c0.0294528,0 0.0533346,0.0238819 0.0533346,0.0533346l0 0.533331c0,0.0294528 -0.0238819,0.0533346 -0.0533346,0.0533346l-0.533331 0c-0.0294528,0 -0.0533346,-0.0238819 -0.0533346,-0.0533346l0 -0.533331c0,-0.0294528 0.0238819,-0.0533346 0.0533346,-0.0533346z"/>
<path class="fil1 str0" d="M2.44299 5.75358l0 -2.22457 -1.48299 0 0 2.22457 1.48299 0zm-0.421496 -1.85895l0 0.533331c0,0.0294528 -0.0238819,0.0533346 -0.0533346,0.0533346l-0.533331 0c-0.0294528,0 -0.0533346,-0.0238819 -0.0533346,-0.0533346l0 -0.533331c0,-0.0294528 0.0238819,-0.0533346 0.0533346,-0.0533346l0.533331 0c0.0294528,0 0.0533346,0.0238819 0.0533346,0.0533346zm-0.586665 0.906665l0.533331 0c0.0294528,0 0.0533346,0.0238819 0.0533346,0.0533346l0 0.533331c0,0.0294528 -0.0238819,0.0533346 -0.0533346,0.0533346l-0.533331 0c-0.0294528,0 -0.0533346,-0.0238819 -0.0533346,-0.0533346l0 -0.533331c0,-0.0294528 0.0238819,-0.0533346 0.0533346,-0.0533346z"/>
<polygon class="fil2 str0" points="3.46667,1.36778 3.80342,1.23307 3.46667,1.09837 "/>
<path class="fil3 str0" d="M3.62542 2.71019c-0.0542717,-0.0542717 -0.12926,-0.0878425 -0.212087,-0.0878425 -0.0828268,0 -0.157815,0.0335709 -0.212087,0.0878425 -0.0542717,0.0542717 -0.0878425,0.12926 -0.0878425,0.212087 0,0.0828268 0.0335709,0.157815 0.0878425,0.212087 0.0542717,0.0542717 0.12926,0.0878425 0.212087,0.0878425 0.0828268,0 0.157815,-0.0335709 0.212087,-0.0878425 0.0542717,-0.0542717 0.0878425,-0.12926 0.0878425,-0.212087 0,-0.0828268 -0.0335709,-0.157815 -0.0878425,-0.212087z"/>
<polygon class="fil3 str0" points="4.91184,3.94796 4.91184,4.37463 5.3385,4.37463 5.3385,3.94796 "/>
<polygon class="fil3 str0" points="5.3385,4.90796 4.91184,4.90796 4.91184,5.33463 5.3385,5.33463 "/>
<polygon class="fil3 str0" points="1.91482,4.37463 1.91482,3.94796 1.48816,3.94796 1.48816,4.37463 "/>
<polygon class="fil3 str0" points="1.91482,4.90796 1.48816,4.90796 1.48816,5.33463 1.91482,5.33463 "/>
<polygon class="fil3 str0" points="2.93333,4.43568 2.93333,5.75358 3.89333,5.75358 3.89333,4.43568 "/>
<polygon class="fil3 str0" points="2.93333,4.00901 3.89333,4.00901 3.89333,3.79568 2.93333,3.79568 "/>
</g>
<rect class="fil4" height="6.82666" width="6.82666"/>
</svg>