<?xml version="1.0" standalone="no"?>
<!DOCTYPE svg PUBLIC "-//W3C//DTD SVG 20010904//EN"
 "http://www.w3.org/TR/2001/REC-SVG-20010904/DTD/svg10.dtd">
<svg version="1.0" xmlns="http://www.w3.org/2000/svg"
 width="512.000000pt" height="512.000000pt" viewBox="0 0 512.000000 512.000000"
 preserveAspectRatio="xMidYMid meet">

<g transform="translate(0.000000,512.000000) scale(0.100000,-0.100000)"
fill="#000000" stroke="none">
<path d="M2365 5114 c-277 -28 -416 -72 -485 -150 -17 -20 -41 -72 -62 -135
l-33 -101 -67 -34 c-86 -44 -180 -80 -365 -144 -81 -29 -173 -65 -203 -81
-132 -70 -231 -176 -295 -314 -50 -108 -52 -129 -17 -165 17 -16 39 -30 50
-30 24 0 72 37 72 55 0 7 18 48 40 92 46 92 135 185 219 227 29 15 118 50 197
77 80 28 188 68 241 89 53 22 97 39 98 37 1 -1 6 -25 13 -52 34 -159 143 -340
306 -512 74 -79 118 -101 178 -89 52 9 87 47 201 213 95 139 106 151 119 135
8 -9 60 -83 116 -163 104 -151 130 -177 187 -186 56 -9 99 13 170 89 149 158
268 351 302 493 10 39 18 71 19 73 1 1 38 -13 83 -33 97 -41 129 -44 159 -12
47 50 21 103 -65 137 -32 13 -92 40 -133 61 l-75 37 -33 101 c-22 66 -45 115
-64 137 -52 59 -179 108 -353 134 -73 11 -450 21 -520 14z m535 -173 c127 -23
220 -56 220 -79 0 -25 -97 -112 -207 -184 -118 -78 -331 -198 -353 -198 -22 0
-235 120 -353 198 -110 72 -207 159 -207 184 0 34 172 80 360 98 136 12 416 3
540 -19z m-774 -399 c34 -22 117 -73 185 -112 68 -39 124 -74 124 -78 0 -4
-47 -75 -105 -159 l-105 -152 -43 42 c-24 23 -67 74 -96 112 -141 187 -202
358 -165 463 l11 31 66 -53 c37 -29 94 -71 128 -94z m1081 70 c14 -124 -86
-328 -252 -510 l-57 -63 -109 153 c-59 84 -108 156 -109 160 0 3 50 34 112 69
131 72 333 207 368 244 29 31 38 21 47 -53z"/>
<path d="M3813 4510 c-43 -17 -58 -84 -25 -113 10 -9 51 -33 92 -53 99 -49
199 -148 240 -236 30 -66 735 -2517 726 -2526 -6 -6 -479 -143 -481 -140 -1 2
-113 333 -249 736 l-248 732 5 393 c5 425 13 514 64 680 l26 88 -20 27 c-24
32 -73 41 -106 19 -29 -19 -63 -117 -90 -254 -19 -103 -21 -149 -24 -994 l-4
-887 28 -21 c31 -25 66 -22 98 10 18 18 20 36 25 233 l5 214 239 -707 c132
-388 247 -722 257 -743 39 -77 135 -127 224 -114 45 6 334 86 389 108 72 29
136 123 136 200 0 61 -823 2930 -864 3013 -71 142 -175 243 -323 311 -76 36
-85 38 -120 24z m1117 -3202 c38 -137 40 -163 13 -188 -10 -10 -98 -41 -196
-68 -181 -52 -207 -54 -234 -21 -13 17 -98 258 -92 263 3 3 455 133 469 135 3
1 21 -54 40 -121z"/>
<path d="M1181 4104 c-26 -33 -26 -33 3 -125 48 -150 58 -254 63 -675 l5 -391
-247 -729 c-136 -401 -250 -732 -254 -735 -8 -8 -474 125 -478 137 -2 5 136
496 307 1092 230 809 307 1089 301 1106 -20 50 -85 67 -121 30 -23 -23 -760
-2595 -760 -2652 1 -71 53 -157 115 -190 42 -22 401 -122 438 -122 78 0 162
51 196 118 10 21 125 355 257 743 l239 707 5 -623 c5 -595 6 -624 24 -644 25
-27 79 -28 106 -1 20 20 20 33 20 1239 0 777 -4 1256 -10 1322 -22 209 -70
387 -111 409 -34 19 -76 12 -98 -16z m-717 -2741 c127 -36 232 -67 233 -68 5
-3 -80 -250 -90 -264 -27 -33 -53 -31 -234 21 -98 28 -184 55 -192 61 -31 26
-31 54 6 186 20 72 38 131 41 131 2 0 108 -30 236 -67z"/>
<path d="M2505 3805 c-31 -30 -32 -73 -4 -109 45 -57 139 -19 139 56 0 39 -40
78 -80 78 -19 0 -40 -9 -55 -25z"/>
<path d="M2505 3055 c-31 -30 -32 -73 -4 -109 45 -57 139 -19 139 56 0 39 -40
78 -80 78 -19 0 -40 -9 -55 -25z"/>
<path d="M2505 2305 c-31 -30 -32 -73 -4 -109 45 -57 139 -19 139 56 0 39 -40
78 -80 78 -19 0 -40 -9 -55 -25z"/>
<path d="M3746 1809 l-26 -20 0 -514 c0 -289 -4 -524 -9 -538 -13 -33 -108
-134 -189 -200 -220 -180 -498 -315 -749 -363 -116 -23 -310 -23 -426 0 -306
59 -669 258 -873 478 -30 34 -60 72 -65 85 -5 13 -9 64 -9 113 0 84 -1 90 -26
109 -30 24 -43 26 -78 10 -38 -18 -48 -56 -44 -172 3 -102 4 -105 42 -163 100
-152 358 -350 618 -474 231 -110 418 -154 653 -154 235 1 404 41 644 155 257
122 515 319 617 474 l39 58 3 539 3 539 -30 30 c-35 34 -59 37 -95 8z"/>
<path d="M2505 1555 c-31 -30 -32 -73 -4 -109 45 -57 139 -19 139 56 0 39 -40
78 -80 78 -19 0 -40 -9 -55 -25z"/>
<path d="M2505 805 c-31 -30 -32 -73 -4 -109 45 -57 139 -19 139 56 0 39 -40
78 -80 78 -19 0 -40 -9 -55 -25z"/>
</g>
</svg>
