<?xml version="1.0" standalone="no"?>
<!DOCTYPE svg PUBLIC "-//W3C//DTD SVG 20010904//EN"
 "http://www.w3.org/TR/2001/REC-SVG-20010904/DTD/svg10.dtd">
<svg version="1.0" xmlns="http://www.w3.org/2000/svg"
 width="512.000000pt" height="512.000000pt" viewBox="0 0 512.000000 512.000000"
 preserveAspectRatio="xMidYMid meet">

<g transform="translate(0.000000,512.000000) scale(0.100000,-0.100000)"
fill="#000000" stroke="none">
<path d="M2938 5100 c-30 -16 -55 -50 -140 -192 -192 -323 -228 -413 -228
-565 0 -114 12 -161 96 -373 40 -102 75 -196 79 -210 5 -21 -34 -106 -187
-410 -107 -212 -233 -477 -282 -590 -49 -113 -92 -208 -95 -213 -4 -4 -20 29
-36 74 -25 72 -27 90 -22 160 14 179 165 799 267 1093 36 106 19 185 -48 220
-89 46 -190 79 -243 78 -61 0 -82 -8 -179 -74 -70 -47 -161 -88 -252 -113 -63
-18 -88 -43 -88 -87 0 -39 32 -68 76 -68 74 0 265 80 369 154 27 20 61 36 75
36 19 0 135 -41 158 -56 2 -1 -3 -17 -11 -36 -24 -57 -103 -331 -156 -538 -97
-381 -139 -627 -121 -720 10 -51 17 -71 138 -371 39 -96 86 -229 104 -295 32
-118 33 -121 32 -339 0 -195 -4 -244 -32 -431 -61 -409 -167 -934 -196 -979
-40 -61 -499 -114 -809 -94 -232 14 -452 53 -487 84 -23 20 -40 83 -90 330
-85 418 -143 803 -157 1032 -6 104 -9 120 -29 140 -29 29 -63 29 -98 2 -24
-19 -26 -26 -26 -99 0 -210 86 -780 184 -1222 49 -217 69 -265 132 -313 45
-34 142 -59 359 -92 157 -23 565 -23 735 0 271 38 366 71 415 146 29 42 85
272 136 553 18 95 35 176 38 180 3 4 77 -4 163 -17 331 -50 494 -60 938 -60
417 0 668 13 719 38 29 14 46 57 37 93 -12 45 -52 53 -211 38 -355 -32 -846
-28 -1210 12 -152 16 -396 52 -402 58 -3 2 8 98 23 213 22 164 28 248 28 398
0 221 -14 303 -90 520 -25 72 -45 137 -45 145 -1 21 150 374 254 597 46 99
146 300 221 447 l137 266 83 0 c101 0 136 19 136 76 0 58 -26 74 -123 74 l-83
0 -63 163 c-101 260 -104 268 -109 347 -8 135 15 194 187 484 l100 170 21 -50
c169 -394 368 -695 655 -991 63 -65 115 -119 115 -120 0 -2 -114 -3 -254 -3
l-255 0 -20 -26 c-26 -33 -27 -65 -2 -95 l19 -24 338 -5 338 -5 186 -370 c329
-653 545 -1183 761 -1869 52 -167 57 -192 46 -215 -16 -34 -72 -52 -296 -96
-97 -19 -205 -41 -240 -47 -49 -10 -69 -19 -84 -40 -23 -31 -18 -67 16 -99 19
-17 30 -20 72 -14 95 12 320 56 440 85 145 36 188 62 228 140 39 75 34 117
-43 360 -225 710 -519 1416 -853 2047 l-107 202 29 83 c16 46 51 140 79 209
63 156 87 267 78 360 -8 88 -39 188 -85 274 -82 154 -243 415 -267 434 -56 44
-146 36 -196 -16 -14 -16 -42 -68 -62 -116 -67 -163 -224 -457 -244 -457 -20
0 -187 312 -244 455 -39 100 -59 128 -102 149 -45 21 -92 20 -138 -4z m996
-308 c170 -288 191 -342 184 -481 -4 -73 -12 -104 -52 -206 -26 -66 -52 -130
-57 -143 l-9 -23 -43 36 -42 36 -13 -30 c-6 -17 -16 -31 -21 -31 -18 0 -271
282 -340 379 l-20 28 65 109 c69 114 198 365 229 447 10 26 19 46 20 45 2 -2
46 -76 99 -166z"/>
<path d="M570 4166 c-97 -26 -191 -70 -219 -102 -47 -53 -47 -87 -1 -231 100
-313 214 -775 247 -999 l17 -121 -31 -84 c-17 -46 -63 -162 -103 -258 -92
-225 -137 -381 -120 -420 11 -27 46 -51 75 -51 34 0 63 46 89 139 29 103 73
220 167 446 79 190 82 225 44 450 -31 184 -129 582 -205 830 -29 94 -54 177
-57 186 -3 12 12 23 61 43 37 14 77 26 90 26 14 0 61 -25 106 -55 129 -86 311
-147 483 -161 l77 -7 0 -138 c0 -137 0 -138 26 -158 35 -28 69 -26 99 4 25 24
25 27 25 199 0 109 -4 184 -11 200 -16 34 -47 43 -164 50 -178 9 -362 71 -486
162 -75 55 -137 70 -209 50z"/>
<path d="M4348 3862 c-87 -87 -108 -114 -108 -136 0 -23 20 -50 98 -128 53
-55 108 -104 121 -109 33 -13 75 5 90 37 17 37 14 50 -19 88 l-30 34 80 3 c88
5 106 14 116 66 5 26 1 37 -19 57 -24 23 -34 26 -103 26 l-76 0 31 35 c37 43
39 78 6 110 -45 46 -68 36 -187 -83z"/>
<path d="M3368 3262 c-12 -16 -126 -236 -252 -489 -223 -448 -229 -460 -215
-488 8 -16 25 -35 39 -42 34 -17 931 -19 963 -1 30 16 46 39 47 66 0 33 -466
959 -489 972 -35 18 -68 12 -93 -18z m59 -870 c-176 -1 -322 0 -324 2 -2 2 69
149 158 327 l162 324 162 -325 163 -325 -321 -3z"/>
<path d="M1003 3085 c-32 -22 -37 -72 -19 -167 27 -135 107 -283 225 -418 l39
-45 -37 -40 c-137 -149 -219 -313 -236 -477 -7 -66 -7 -68 23 -98 l30 -30 337
0 336 0 24 25 c21 20 25 34 25 82 0 133 -72 299 -196 451 l-75 93 38 42 c145
158 232 344 233 498 0 45 -4 60 -23 77 -23 22 -28 22 -363 22 -288 0 -343 -2
-361 -15z m582 -167 c-17 -86 -112 -244 -190 -318 l-37 -35 -40 45 c-88 99
-178 261 -178 320 0 19 8 20 226 20 l226 0 -7 -32z m-88 -730 c39 -60 93 -181
93 -208 0 -6 -86 -10 -226 -10 l-226 0 6 33 c16 80 94 213 176 301 l45 48 44
-48 c24 -27 63 -79 88 -116z"/>
<path d="M165 2935 c-33 -32 -31 -67 6 -110 l31 -35 -80 0 c-75 0 -82 -2 -101
-26 -26 -33 -27 -65 -2 -95 16 -20 30 -24 95 -27 l75 -4 -24 -33 c-39 -51 -32
-99 19 -120 44 -19 69 -5 164 88 91 89 117 128 108 161 -3 12 -52 67 -109 124
-115 112 -138 122 -182 77z"/>
<path d="M4825 805 c-33 -32 -31 -67 6 -110 l31 -35 -76 0 c-69 0 -79 -3 -103
-26 -20 -20 -24 -31 -19 -57 10 -52 28 -61 116 -66 l80 -3 -30 -34 c-33 -38
-36 -51 -19 -88 15 -32 57 -50 90 -37 13 5 68 54 122 109 77 78 97 105 97 128
0 22 -21 49 -108 136 -119 119 -142 129 -187 83z"/>
<path d="M2555 480 c-11 -4 -64 -53 -117 -108 -78 -78 -98 -105 -98 -128 0
-22 21 -49 108 -136 119 -119 142 -129 187 -83 33 32 31 67 -6 110 l-31 35 76
0 c68 0 80 3 101 25 32 31 32 69 0 100 -21 22 -33 25 -101 25 l-76 0 31 35
c44 51 41 94 -10 120 -31 17 -36 17 -64 5z"/>
</g>
</svg>
